<?xml version="1.0" standalone="no"?>
<!DOCTYPE svg PUBLIC "-//W3C//DTD SVG 20010904//EN"
 "http://www.w3.org/TR/2001/REC-SVG-20010904/DTD/svg10.dtd">
<svg version="1.0" xmlns="http://www.w3.org/2000/svg"
 width="260.000000pt" height="260.000000pt" viewBox="0 0 260.000000 260.000000"
 preserveAspectRatio="xMidYMid meet">
<metadata>
Created by potrace 1.11, written by Peter Selinger 2001-2013
</metadata>
<g transform="translate(0.000000,260.000000) scale(0.100000,-0.100000)"
fill="#000000" stroke="none">
<path d="M985 2160 c-94 -36 -170 -134 -182 -231 l-6 -49 -208 0 -207 0 -63
-33 c-70 -36 -128 -102 -148 -167 -7 -25 -11 -195 -11 -541 l0 -504 24 -52
c32 -68 95 -127 162 -153 54 -20 73 -20 959 -20 886 0 905 0 959 20 67 26 130
85 162 153 l24 52 0 504 c0 346 -4 516 -11 541 -20 65 -78 131 -148 167 l-63
33 -207 0 -208 0 -6 49 c-12 99 -89 195 -184 231 -49 18 -78 20 -321 19 -240
0 -272 -2 -317 -19z m479 -520 c332 -114 463 -494 272 -784 -150 -225 -459
-297 -692 -160 -288 169 -345 564 -116 808 70 74 192 139 302 160 49 9 176 -3
234 -24z"/>
<path d="M1219 1437 c-81 -23 -158 -93 -196 -177 -25 -56 -22 -174 5 -236 86
-192 344 -240 490 -91 62 63 87 126 86 217 0 57 -6 87 -23 122 -29 59 -89 120
-145 148 -55 26 -156 34 -217 17z"/>
</g>
</svg>
